<svg width="123.000000" height="29.000000" viewBox="0 0 123 29" fill="none" xmlns="http://www.w3.org/2000/svg" xmlns:xlink="http://www.w3.org/1999/xlink">
	<desc>
			Created with Pixso.
	</desc>
	<defs/>
	<path d="M25.73 9.71C26.09 9.71 26.21 9.84 26.21 10.18L26.21 18.11L30.28 18.11C30.63 18.11 30.76 18.24 30.76 18.59L30.76 19.29C30.76 19.64 30.63 19.77 30.28 19.77L24.92 19.77C24.57 19.77 24.43 19.64 24.43 19.29L24.43 10.18C24.43 9.84 24.57 9.71 24.92 9.71L25.73 9.71Z" fill="#696871" fill-opacity="1.000000" fill-rule="nonzero"/>
	<path d="M38.31 9.5C35.77 9.5 34.31 10.89 34.31 13.2L34.31 16.28C34.31 18.59 35.78 19.98 38.31 19.98C40.84 19.98 42.31 18.59 42.31 16.28L42.31 13.2C42.31 10.89 40.85 9.5 38.31 9.5ZM38.36 11.2C39.82 11.2 40.63 11.9 40.63 13.2L40.63 16.3C40.63 17.58 39.82 18.3 38.36 18.3C36.9 18.3 36.1 17.61 36.1 16.3L36.1 13.2C36.1 11.91 36.9 11.2 38.36 11.2Z" clip-rule="evenodd" fill="#696871" fill-opacity="1.000000" fill-rule="evenodd"/>
	<path d="M54.22 14.26C54.61 14.26 54.7 14.39 54.7 14.74L54.7 16.64C54.72 17.54 54.33 18.41 53.64 19C52.79 19.67 51.72 20.01 50.64 19.94C48.05 19.94 46.64 18.54 46.64 16.24L46.64 13.14C46.64 10.86 48.1 9.46 50.64 9.46C52.64 9.46 53.94 10.25 54.49 11.83C54.55 11.95 54.55 12.09 54.49 12.21C54.43 12.33 54.32 12.42 54.19 12.45L53.41 12.72C53.07 12.84 52.93 12.77 52.81 12.42C52.46 11.54 51.57 11 50.64 11.12C49.17 11.12 48.37 11.83 48.37 13.12L48.37 16.29C48.37 17.61 49.18 18.29 50.64 18.29C52.1 18.29 53 17.62 53 16.65L53 15.91L50.83 15.91C50.47 15.91 50.34 15.77 50.34 15.42L50.34 14.74C50.34 14.39 50.47 14.26 50.83 14.26L54.22 14.26Z" fill="#696871" fill-opacity="1.000000" fill-rule="nonzero"/>
	<path d="M62.83 9.5C60.29 9.5 58.83 10.89 58.83 13.2L58.83 16.28C58.83 18.59 60.3 19.98 62.83 19.98C65.36 19.98 66.83 18.59 66.83 16.28L66.83 13.2C66.83 10.89 65.37 9.5 62.83 9.5ZM62.88 11.2C64.33 11.2 65.14 11.9 65.14 13.2L65.14 16.3C65.14 17.58 64.34 18.3 62.88 18.3C61.42 18.3 60.61 17.61 60.61 16.3L60.61 13.2C60.61 11.91 61.43 11.2 62.88 11.2Z" clip-rule="evenodd" fill="#696871" fill-opacity="1.000000" fill-rule="evenodd"/>
	<path d="M71.54 10C71.54 9.78 71.61 9.71 71.83 9.71L72.29 9.71C72.51 9.71 72.56 9.78 72.56 10L72.56 19.48C72.56 19.7 72.56 19.77 72.29 19.77L71.83 19.77C71.61 19.77 71.54 19.7 71.54 19.48L71.54 10Z" fill="#696871" fill-opacity="1.000000" fill-rule="nonzero"/>
	<path d="M81.67 9.71002C83.4042 9.71002 84.81 11.1158 84.81 12.85C84.81 14.5842 83.4042 15.9901 81.67 15.9901L78.67 15.9901L78.67 19.48C78.67 19.7 78.62 19.77 78.41 19.77L77.94 19.77C77.73 19.77 77.65 19.7 77.65 19.48L77.65 10C77.65 9.78003 77.73 9.71002 77.94 9.71002L81.67 9.71002ZM83.468 13.91C83.0785 14.5845 82.3589 15 81.58 15L78.58 15L78.58 10.64L81.58 10.64C82.3589 10.64 83.0785 11.0555 83.468 11.73C83.8574 12.4045 83.8574 13.2355 83.468 13.91Z" clip-rule="evenodd" fill="#696871" fill-opacity="1.000000" fill-rule="evenodd"/>
	<path d="M92.62 9.51C94.2 9.33 95.71 10.22 96.34 11.69C96.42 11.85 96.34 11.98 96.18 12.06L95.74 12.26C95.56 12.33 95.49 12.32 95.38 12.13C94.91 11.04 93.79 10.37 92.62 10.49C90.93 10.49 90.01 11.16 90.01 12.36C89.98 13.11 90.53 13.77 91.28 13.9C91.81 14.07 92.37 14.18 92.94 14.22C93.62 14.25 94.29 14.39 94.94 14.63C95.95 14.95 96.6 15.94 96.5 17C96.5 18.87 95.14 20 92.64 20C90.95 20.19 89.35 19.18 88.81 17.57C88.77 17.49 88.77 17.41 88.8 17.34C88.83 17.26 88.9 17.21 88.98 17.19L89.42 17.03C89.49 17 89.56 17 89.63 17.03C89.7 17.06 89.75 17.12 89.78 17.2C90.23 18.35 91.39 19.08 92.64 19C94.53 19 95.46 18.34 95.46 17C95.49 16.27 95 15.62 94.29 15.47C93.77 15.31 93.23 15.22 92.7 15.19L91.62 15.05C91.28 14.97 90.94 14.88 90.62 14.78C90.29 14.68 89.99 14.52 89.73 14.31C89.19 13.82 88.89 13.12 88.93 12.4C89 10.65 90.31 9.51 92.62 9.51Z" fill="#696871" fill-opacity="1.000000" fill-rule="nonzero"/>
	<path d="M101.89 16.35C101.97 17.81 103.19 18.96 104.66 18.96C106.13 18.96 107.35 17.81 107.44 16.35L107.44 10C107.44 9.78 107.51 9.71 107.73 9.71L108.19 9.71C108.41 9.71 108.48 9.78 108.48 10L108.48 16.34C108.48 18.61 107.14 19.98 104.67 19.98C102.2 19.98 100.86 18.61 100.86 16.34L100.86 10C100.86 9.78 100.93 9.71 101.14 9.71L101.61 9.71C101.82 9.71 101.89 9.78 101.89 10L101.89 16.35Z" fill="#696871" fill-opacity="1.000000" fill-rule="nonzero"/>
	<path d="M122.28 9.7C122.5 9.7 122.57 9.77 122.57 10L122.57 19.48C122.57 19.7 122.5 19.77 122.28 19.77L121.86 19.77C121.65 19.77 121.58 19.7 121.58 19.48L121.58 13.71C121.58 12.87 121.63 12.03 121.75 11.2L121.69 11.2C121.37 11.96 121.01 12.69 120.6 13.41L118.45 17.2C118.39 17.33 118.26 17.42 118.12 17.42L117.84 17.42C117.69 17.42 117.56 17.33 117.5 17.2L115.32 13.37C114.93 12.66 114.59 11.94 114.32 11.19L114.26 11.19C114.36 12.02 114.41 12.87 114.42 13.72L114.42 19.48C114.42 19.7 114.35 19.77 114.13 19.77L113.74 19.77C113.52 19.77 113.45 19.7 113.45 19.48L113.45 10C113.45 9.77 113.52 9.7 113.74 9.7L114.1 9.7C114.26 9.69 114.42 9.78 114.5 9.93L118 16.16L121.48 10C121.59 9.78 121.65 9.76 121.87 9.76L122.28 9.7Z" fill="#696871" fill-opacity="1.000000" fill-rule="nonzero"/>
	<path d="M7.94003 17.55L7.94003 24.78C7.94003 25.3572 7.47217 25.825 6.89502 25.825C6.31787 25.825 5.85004 25.3572 5.85004 24.78L5.85004 17.56C6.14099 17.7725 6.48987 17.8911 6.85004 17.9C7.24268 17.9113 7.62732 17.7877 7.94003 17.55ZM15.84 16.46C15.84 15.9077 16.2878 15.46 16.84 15.46C17.1294 15.4334 17.416 15.5341 17.6252 15.7356C17.8215 15.9246 17.9315 16.1849 17.9315 16.4557C17.9315 16.4738 17.931 16.4919 17.93 16.51L17.93 17.72C17.93 18.2971 17.4622 18.765 16.885 18.765C16.3079 18.765 15.84 18.2971 15.84 17.72L15.84 16.46ZM2.58002 19.95C2.87186 20.1608 3.22018 20.2792 3.58002 20.29C3.9682 20.3127 4.35349 20.2111 4.68002 20L4.68002 27.2C4.68002 27.7799 4.20993 28.25 3.63004 28.25C3.05011 28.25 2.58002 27.7799 2.58002 27.2L2.58002 19.95ZM12.8404 13.5646C13.0388 13.3755 13.3062 13.2763 13.58 13.29L13.53 13.31C13.821 13.2803 14.1104 13.3795 14.322 13.5815C14.5202 13.7707 14.6316 14.0323 14.6316 14.3048C14.6316 14.3231 14.631 14.3416 14.63 14.36L14.63 19.86C14.63 20.4399 14.1599 20.91 13.58 20.91C13.0001 20.91 12.53 20.4399 12.53 19.86L12.53 14.29L12.53 14.2888C12.53 14.0151 12.6422 13.7534 12.8404 13.5646ZM9.21002 15.09C9.51669 15.3087 9.88336 15.4274 10.26 15.43L10.21 15.45C10.6055 15.4595 10.9928 15.3363 11.31 15.1L11.31 22.36C11.31 22.9399 10.8399 23.41 10.26 23.41C9.68011 23.41 9.21002 22.9399 9.21002 22.36L9.21002 15.09ZM1.31003 0.690002L1.31003 21C1.31003 21.2493 1.211 21.4884 1.0347 21.6647C0.858429 21.841 0.619324 21.94 0.370026 21.94L0.150024 21.94C-0.369141 21.94 -0.789978 21.5192 -0.789978 21L-0.789978 0.690002C-0.784485 0.174744 -0.365234 -0.23999 0.150024 -0.23999L0.370026 -0.23999C0.885284 -0.23999 1.30453 0.174744 1.31003 0.690002ZM3.69003 19.52L3.47003 19.52C2.95087 19.52 2.53003 19.0992 2.53003 18.58L2.53003 3.10999C2.53549 2.59479 2.95474 2.17999 3.47003 2.17999L3.69003 2.17999C4.20529 2.17999 4.62454 2.59479 4.63004 3.10999L4.63004 18.6C4.63004 19.1191 4.20917 19.54 3.69003 19.54L3.69003 19.52ZM7.00003 17.14L6.77002 17.14C6.25641 17.14 5.84003 16.7236 5.84003 16.21L5.84003 5.51001L5.83997 5.5C5.83997 5.25519 5.93649 5.02014 6.10886 4.84595C6.28354 4.66937 6.52164 4.57001 6.77002 4.57001L7.00003 4.57001C7.51523 4.5755 7.93002 4.99469 7.93002 5.50995L7.93002 16.21C7.93002 16.7236 7.51364 17.14 7.00003 17.14ZM10.31 14.69L10.1 14.69C9.58475 14.6901 9.1655 14.2753 9.16003 13.76L9.16003 8C9.15875 7.97998 9.15811 7.95996 9.15811 7.93994C9.15811 7.70148 9.24884 7.47101 9.41321 7.2962C9.59131 7.10669 9.83997 6.99945 10.1 7L10.32 7C10.8392 7 11.26 7.42084 11.26 7.94L11.26 13.74L11.2601 13.75C11.2601 13.9974 11.1625 14.2351 10.9883 14.4111C10.8117 14.5896 10.5711 14.69 10.32 14.69L10.31 14.69ZM13.63 12.54L13.41 12.54C12.8909 12.54 12.47 12.1191 12.47 11.6L12.47 10.11C12.4755 9.59479 12.8947 9.17999 13.41 9.17999L13.63 9.17999C14.1453 9.17999 14.5645 9.59479 14.57 10.11L14.57 11.6C14.57 12.1153 14.1552 12.5345 13.64 12.54L13.63 12.54Z" clip-rule="evenodd" fill="#696871" fill-opacity="1.000000" fill-rule="evenodd"/>
</svg>
