<svg width="100.000000" height="47.000000" viewBox="0 0 100 47" fill="none" xmlns="http://www.w3.org/2000/svg" xmlns:xlink="http://www.w3.org/1999/xlink">
	<desc>
			Created with Pixso.
	</desc>
	<defs/>
	<path d="M-0.21 27.79L2.79 27.79L2.79 42.5L-0.21 42.5L-0.21 27.79Z" fill="#696871" fill-opacity="1.000000" fill-rule="nonzero"/>
	<path d="M4.53003 37.46C4.52598 35.2993 5.82446 33.3491 7.81956 32.5193C9.81466 31.6897 12.1131 32.1441 13.6424 33.6705C15.1717 35.197 15.6304 37.4946 14.8045 39.4912C13.9785 41.4879 12.0308 42.79 9.87003 42.79C8.4506 42.8062 7.08445 42.2502 6.07976 41.2474C5.07507 40.2446 4.51649 38.8795 4.53003 37.46ZM9.83106 35.2004C11.1043 35.1785 12.1571 36.1871 12.19 37.46C12.2238 38.0905 11.9923 38.7063 11.5516 39.1584C11.1109 39.6105 10.5011 39.8577 9.87003 39.84C8.59663 39.8396 7.56158 38.8129 7.55088 37.5395C7.54019 36.2662 8.55785 35.2222 9.83106 35.2004Z" clip-rule="evenodd" fill="#696871" fill-opacity="1.000000" fill-rule="evenodd"/>
	<path d="M27.27 32.42L27.27 42C27.27 45.39 24.62 46.82 21.94 46.82C20.0188 46.9628 18.1785 46.0215 17.17 44.38L19.75 42.89C20.1689 43.7344 21.0606 44.2377 22 44.16C22.6123 44.262 23.2373 44.074 23.6916 43.651C24.146 43.228 24.3781 42.618 24.32 42L24.32 41.07C23.6046 41.95 22.5127 42.4365 21.38 42.38C18.5523 42.38 16.26 40.0877 16.26 37.26C16.26 34.4323 18.5523 32.14 21.38 32.14C22.5118 32.0883 23.6016 32.5739 24.32 33.45L24.32 32.45L27.27 32.42ZM22.8851 34.9357C23.7929 35.3451 24.3608 36.265 24.32 37.26C24.3386 37.9038 24.084 38.5255 23.6191 38.9713C23.1542 39.4171 22.5225 39.6454 21.88 39.6C20.8842 39.5991 19.9888 38.9932 19.6178 38.0692C19.2467 37.1451 19.4745 36.0882 20.1932 35.3989C20.9119 34.7097 21.9774 34.5263 22.8851 34.9357Z" clip-rule="evenodd" fill="#696871" fill-opacity="1.000000" fill-rule="evenodd"/>
	<path d="M29.0001 37.46C28.996 35.2993 30.2945 33.3491 32.2896 32.5193C34.2847 31.6897 36.5832 32.1441 38.1125 33.6705C39.6418 35.197 40.1005 37.4946 39.2745 39.4912C38.4486 41.4879 36.5008 42.79 34.3401 42.79C32.9206 42.8062 31.5545 42.2502 30.5498 41.2474C29.5451 40.2446 28.9865 38.8795 29.0001 37.46ZM34.3011 35.2004C35.5743 35.1785 36.6271 36.1871 36.6601 37.46L36.6401 37.46C36.6735 38.0869 36.4447 38.6995 36.0084 39.1509C35.5721 39.6024 34.9677 39.8521 34.3401 39.84C33.0667 39.8396 32.0316 38.8129 32.0209 37.5395C32.0102 36.2662 33.0279 35.2222 34.3011 35.2004Z" clip-rule="evenodd" fill="#696871" fill-opacity="1.000000" fill-rule="evenodd"/>
	<path d="M42.8901 27.9C41.8849 27.9 41.0701 28.7148 41.0701 29.72C41.0755 30.7228 41.8872 31.5345 42.8901 31.54C43.8952 31.54 44.7101 30.7251 44.7101 29.72C44.7101 28.7148 43.8952 27.9 42.8901 27.9ZM44.3801 32.42L41.3801 32.42L41.3801 42.4999L44.3801 42.4999L44.3801 32.42Z" clip-rule="evenodd" fill="#696871" fill-opacity="1.000000" fill-rule="evenodd"/>
	<path d="M57.46 37.46C57.5335 38.8057 57.067 40.1252 56.1641 41.1258C55.2611 42.1264 53.9963 42.7254 52.65 42.79C51.5172 42.8444 50.4186 42.3939 49.65 41.56L49.65 46.56L46.65 46.56L46.65 32.42L49.65 32.42L49.65 33.37C50.4186 32.536 51.5172 32.0856 52.65 32.14C53.9944 32.2046 55.2577 32.8022 56.1604 33.8006C57.063 34.799 57.5307 36.1158 57.46 37.46ZM52.0405 35.1208C53.3502 35.1098 54.4269 36.1507 54.46 37.46L54.44 37.46C54.4876 38.1223 54.2465 38.7728 53.7789 39.2443C53.3113 39.7158 52.6627 39.9621 52 39.92C50.6908 39.8868 49.6498 38.8101 49.6609 37.5005C49.6719 36.1909 50.7309 35.1319 52.0405 35.1208Z" clip-rule="evenodd" fill="#696871" fill-opacity="1.000000" fill-rule="evenodd"/>
	<path d="M66.8 39.48C66.8 41.8 64.8 42.79 62.6 42.79C60.8 42.94 59.08 41.99 58.27 40.39L60.89 38.9C61.1 39.64 61.82 40.14 62.6 40.09C63.33 40.09 63.69 39.86 63.69 39.46C63.69 38.34 58.69 38.93 58.69 35.46C58.69 33.25 60.55 32.15 62.69 32.15C64.29 32.1 65.8 32.92 66.62 34.31L64 35.68C63.76 35.15 63.22 34.8 62.64 34.8C62.12 34.8 61.8 35 61.8 35.37C61.84 36.52 66.8 35.75 66.8 39.48Z" fill="#696871" fill-opacity="1.000000" fill-rule="nonzero"/>
	<path d="M77.84 32.41L77.84 42.5L74.84 42.5L74.84 41.56C74.13 42.4 73.06 42.86 71.96 42.79C69.96 42.79 68.19 41.34 68.19 38.61L68.19 32.41L71.19 32.41L71.19 38.16C71.13 38.66 71.3 39.16 71.66 39.51C72.01 39.86 72.5 40.04 73 40C74.1 40 74.87 39.36 74.87 37.93L74.87 32.41L77.84 32.41Z" fill="#696871" fill-opacity="1.000000" fill-rule="nonzero"/>
	<path d="M95.18 36.31L95.18 42.5L92.18 42.5L92.18 36.58C92.18 35.58 91.69 34.91 90.73 34.91C89.77 34.91 89.15 35.62 89.15 36.81L89.15 42.5L86.15 42.5L86.15 36.58C86.15 35.58 85.67 34.91 84.7 34.91C83.73 34.91 83.13 35.62 83.13 36.81L83.13 42.5L80.12 42.5L80.12 32.41L83.13 32.41L83.13 33.34C83.76 32.51 84.78 32.06 85.83 32.14C86.88 32.08 87.88 32.59 88.47 33.47C89.15 32.55 90.25 32.05 91.39 32.14C93.67 32.14 95.18 33.8 95.18 36.31Z" fill="#696871" fill-opacity="1.000000" fill-rule="nonzero"/>
	<path d="M97.74 32.36C98.97 32.36 99.98 31.35 99.98 30.12C99.98 28.88 98.97 27.88 97.74 27.88C96.5 27.88 95.5 28.88 95.5 30.12C95.5 31.35 96.5 32.36 97.74 32.36Z" fill="#696871" fill-opacity="1.000000" fill-rule="nonzero"/>
	<path d="M33.74 20.16C39.53 20.16 44.23 15.46 44.23 9.66C44.23 3.87 39.53 -0.83 33.74 -0.83C27.94 -0.83 23.25 3.87 23.25 9.66C23.25 15.46 27.94 20.16 33.74 20.16Z" fill="#696871" fill-opacity="1.000000" fill-rule="nonzero"/>
	<path d="M57.19 20.16C62.98 20.16 67.68 15.46 67.68 9.66C67.68 3.87 62.98 -0.83 57.19 -0.83C51.39 -0.83 46.7 3.87 46.7 9.66C46.7 15.46 51.39 20.16 57.19 20.16Z" fill="#696871" fill-opacity="1.000000" fill-rule="nonzero"/>
	<rect x="-0.189941" y="-0.820007" width="20.969999" height="20.969999" fill="#696871" fill-opacity="1.000000"/>
</svg>
