<svg width="117.000000" height="23.000000" viewBox="0 0 117 23" fill="none" xmlns="http://www.w3.org/2000/svg" xmlns:xlink="http://www.w3.org/1999/xlink">
	<desc>
			Created with Pixso.
	</desc>
	<defs/>
	<path d="M36.87 18.39C36.28 18.42 35.69 18.25 35.2 17.91C34.79 17.6 34.56 17.11 34.57 16.6L34.57 7.33C34.57 7.25 34.59 7.17 34.65 7.11C34.71 7.05 34.79 7.03 34.86 7.03L36.54 7.03C36.73 7.03 36.82 7.14 36.82 7.33L36.82 15.88C36.82 16.26 36.99 16.45 37.34 16.45C37.49 16.45 37.64 16.43 37.78 16.4C37.98 16.4 38.09 16.45 38.1 16.64L38.25 17.89C38.27 17.96 38.25 18.04 38.21 18.09C38.16 18.15 38.09 18.19 38.01 18.2C37.65 18.32 37.26 18.38 36.87 18.39Z" fill="#696871" fill-opacity="1.000000" fill-rule="nonzero"/>
	<path d="M46.3299 17.3201C44.5886 18.7587 42.0712 18.7587 40.3299 17.3201C38.7856 15.761 38.7856 13.249 40.3299 11.6901C42.074 10.2592 44.5858 10.2592 46.3299 11.6901C47.836 13.2607 47.836 15.7394 46.3299 17.3101L46.3299 17.3201ZM44.7699 16.0001C43.9583 16.7352 42.7215 16.7352 41.9099 16.0001C41.1768 15.1572 41.1768 13.903 41.9099 13.0601C42.7215 12.3248 43.9583 12.3248 44.7699 13.0601C45.503 13.903 45.503 15.1572 44.7699 16.0001Z" clip-rule="evenodd" fill="#696871" fill-opacity="1.000000" fill-rule="evenodd"/>
	<path d="M56.7099 10.87C56.8999 10.87 56.9899 10.97 56.9899 11.16L56.9899 18.33C57.0253 19.31 56.6176 20.2539 55.8799 20.9C55.0714 21.5895 54.0315 21.9468 52.9699 21.9C52.0111 21.9337 51.065 21.6719 50.2599 21.15C49.565 20.6937 49.0906 19.9694 48.9499 19.15C48.9499 18.95 48.9499 18.86 49.2199 18.86L50.8999 18.86C51.0456 18.8649 51.1749 18.955 51.2299 19.09C51.3389 19.3937 51.5561 19.6465 51.8399 19.8C52.1858 19.9785 52.5708 20.0678 52.9599 20.06C53.4342 20.086 53.8991 19.9202 54.2499 19.6C54.5705 19.2649 54.7403 18.8134 54.7199 18.35L54.7199 17.72C54.1184 18.1624 53.3863 18.3912 52.6399 18.37C51.5844 18.4084 50.5588 18.0148 49.7999 17.28C48.3013 15.7296 48.3013 13.2704 49.7999 11.72C50.5623 10.9919 51.5864 10.6024 52.6399 10.64C53.4079 10.6198 54.1597 10.8632 54.7699 11.33L54.7699 11.17C54.7606 11.0924 54.7867 11.0147 54.841 10.9585C54.8953 10.9023 54.972 10.8734 55.0499 10.88L56.7099 10.87ZM54.1999 16C53.8533 16.39 53.3515 16.6061 52.8299 16.59C52.3028 16.6052 51.7952 16.3898 51.4399 16C51.0813 15.5882 50.8919 15.0558 50.9099 14.51C50.8879 13.9588 51.0816 13.4207 51.4499 13.01C51.8044 12.6191 52.3125 12.4034 52.8399 12.42C53.3567 12.403 53.8545 12.6152 54.1999 13C54.8837 13.8831 54.8837 15.1169 54.1999 16Z" clip-rule="evenodd" fill="#696871" fill-opacity="1.000000" fill-rule="evenodd"/>
	<path d="M65.6199 17.3201C63.8758 18.7509 61.364 18.7509 59.6199 17.3201C58.1126 15.746 58.1126 13.264 59.6199 11.6901C61.3654 10.2631 63.8745 10.2631 65.6199 11.6901C67.126 13.2607 67.126 15.7394 65.6199 17.3101L65.6199 17.3201ZM62.6299 16.55C62.0957 16.5665 61.5772 16.3684 61.1899 16.0001C60.4696 15.1524 60.4696 13.9077 61.1899 13.0601C61.5772 12.6917 62.0957 12.4936 62.6299 12.5101C63.1607 12.4963 63.6752 12.6942 64.0599 13.0601C64.7803 13.9077 64.7803 15.1524 64.0599 16.0001C63.6752 16.3659 63.1607 16.5638 62.6299 16.55Z" clip-rule="evenodd" fill="#696871" fill-opacity="1.000000" fill-rule="evenodd"/>
	<path d="M68.45 9.17004C68.9967 9.64856 69.8132 9.64856 70.36 9.17004C70.6022 8.94141 70.7395 8.62311 70.7395 8.29004C70.7395 7.95697 70.6022 7.63861 70.36 7.41003C69.8085 6.94421 69.0014 6.94421 68.45 7.41003C68.2077 7.63861 68.0704 7.95697 68.0704 8.29004C68.0704 8.62311 68.2077 8.94141 68.45 9.17004ZM68.8999 17.91C69.3882 18.2504 69.9755 18.4192 70.5699 18.39C70.9608 18.3864 71.3487 18.3223 71.72 18.2C71.795 18.1957 71.8645 18.1591 71.9105 18.0996C71.9565 18.0402 71.9745 17.9637 71.9599 17.89L71.81 16.64C71.8 16.46 71.69 16.4 71.49 16.4C71.3432 16.4386 71.1916 16.4554 71.0399 16.45Q70.8132 16.45 70.6873 16.3373Q70.53 16.1966 70.53 15.88L70.53 11.16C70.53 10.97 70.44 10.87 70.25 10.87L68.5699 10.87C68.4904 10.8602 68.4108 10.8875 68.3541 10.9442C68.2975 11.0009 68.2701 11.0805 68.28 11.16L68.28 16.6C68.2623 17.1113 68.4934 17.5995 68.8999 17.91Z" clip-rule="evenodd" fill="#696871" fill-opacity="1.000000" fill-rule="evenodd"/>
	<path d="M78.1399 10.6301C79.2001 10.5881 80.2321 10.9778 80.9999 11.71C82.4671 13.2846 82.4671 15.7255 80.9999 17.3C80.2356 18.0389 79.2022 18.4328 78.1399 18.39C77.3911 18.4067 76.6573 18.1785 76.0499 17.7401L76.0499 21.35C76.0499 21.54 75.95 21.6301 75.7599 21.6301L74.0799 21.6301C74.0021 21.6446 73.9221 21.6198 73.8661 21.5638C73.8102 21.5079 73.7854 21.4279 73.7999 21.35L73.7999 13.15C73.8238 12.9874 73.7694 12.8231 73.6532 12.7068C73.5369 12.5906 73.3726 12.5362 73.2099 12.5601L72.8799 12.5601Q72.6641 12.5601 72.5894 12.4574Q72.5499 12.4031 72.5499 12.3201L72.5499 11.14C72.5393 10.9896 72.6351 10.8521 72.78 10.8101C73.1259 10.6843 73.492 10.6233 73.8599 10.6301C74.6106 10.5636 75.3266 10.9592 75.67 11.6301C76.3209 10.9715 77.2142 10.6099 78.1399 10.6301ZM77.9599 16.5895C77.4388 16.5895 76.9403 16.3766 76.5799 16.0001C76.2187 15.574 76.0297 15.0283 76.0499 14.47C76.0267 13.9114 76.2161 13.3646 76.5799 12.9401C76.9403 12.5635 77.4388 12.3505 77.9599 12.3505C78.4811 12.3505 78.9796 12.5635 79.34 12.9401C79.7184 13.3572 79.9161 13.9074 79.89 14.47C79.9129 15.0322 79.7155 15.5811 79.34 16.0001C78.9796 16.3766 78.4811 16.5895 77.9599 16.5895Z" clip-rule="evenodd" fill="#696871" fill-opacity="1.000000" fill-rule="evenodd"/>
	<path d="M86.81 18.39C85.92 18.42 85.03 18.21 84.24 17.77C83.61 17.38 83.18 16.73 83.08 16C83.08 15.8 83.15 15.7 83.37 15.7L84.84 15.7C84.99 15.7 85.11 15.79 85.17 15.92C85.38 16.45 85.93 16.73 86.81 16.73C87.12 16.74 87.43 16.68 87.7 16.54C87.9 16.46 88.03 16.27 88.04 16.06C88.04 15.8 87.88 15.62 87.56 15.5C87.19 15.37 86.79 15.28 86.39 15.25C85.92 15.19 85.46 15.11 84.99 15C84.55 14.89 84.14 14.66 83.82 14.33C83.45 13.86 83.28 13.27 83.37 12.68C83.45 12.09 83.77 11.57 84.25 11.23C84.98 10.77 85.82 10.54 86.67 10.59C87.5 10.56 88.32 10.76 89.03 11.18C89.62 11.51 90.02 12.08 90.13 12.75C90.13 12.95 90.04 13.05 89.86 13.05L88.38 13.05C88.26 13.05 88.14 12.98 88.08 12.87C87.99 12.63 87.8 12.44 87.56 12.34C87.3 12.2 87 12.13 86.7 12.14C86.41 12.12 86.12 12.18 85.85 12.31C85.66 12.38 85.54 12.56 85.53 12.77C85.55 13.05 85.74 13.29 86.01 13.36C86.4 13.5 86.8 13.6 87.2 13.66C87.67 13.72 88.14 13.8 88.59 13.92C89.04 14.02 89.45 14.25 89.76 14.59C90.1 14.96 90.28 15.45 90.25 15.96C90.27 16.66 89.92 17.32 89.32 17.7C88.58 18.17 87.7 18.42 86.81 18.39Z" fill="#696871" fill-opacity="1.000000" fill-rule="nonzero"/>
	<path d="M100.83 17.89C100.84 17.96 100.82 18.03 100.78 18.09C100.73 18.15 100.67 18.19 100.6 18.2C100.23 18.31 99.85 18.38 99.46 18.39C98.69 18.46 97.93 18.14 97.46 17.52C96.76 18.12 95.85 18.43 94.91 18.39C94.04 18.43 93.19 18.09 92.57 17.48C91.96 16.83 91.64 15.96 91.68 15.07L91.68 11.16C91.68 10.97 91.77 10.87 91.96 10.87L93.64 10.87C93.83 10.87 93.92 10.97 93.92 11.16L93.92 14.77C93.91 15.21 94.06 15.65 94.35 16C94.65 16.31 95.07 16.48 95.5 16.46C95.95 16.48 96.38 16.33 96.7 16.03C97.01 15.71 97.18 15.28 97.15 14.84L97.15 11.16C97.15 10.97 97.24 10.87 97.43 10.87L99.13 10.87C99.32 10.87 99.41 10.97 99.41 11.16L99.41 15.87C99.41 16.26 99.58 16.45 99.91 16.45C100.07 16.45 100.23 16.43 100.38 16.4C100.45 16.37 100.53 16.39 100.6 16.44C100.66 16.48 100.7 16.56 100.71 16.64L100.83 17.89Z" fill="#696871" fill-opacity="1.000000" fill-rule="nonzero"/>
	<path d="M116.72 17.89C116.73 17.96 116.72 18.03 116.67 18.09C116.63 18.15 116.56 18.19 116.49 18.2C116.11 18.32 115.73 18.38 115.34 18.39C114.74 18.42 114.15 18.25 113.67 17.91C113.24 17.61 112.99 17.12 113 16.6L113 14.25C113.02 13.8 112.87 13.36 112.58 13.02C112.29 12.7 111.88 12.53 111.46 12.55C111.07 12.53 110.7 12.69 110.46 12.99C110.19 13.32 110.06 13.74 110.08 14.17L110.08 17.86C110.08 18.04 109.99 18.15 109.8 18.15L108.11 18.15C108.03 18.15 107.95 18.13 107.89 18.07C107.83 18.01 107.81 17.93 107.82 17.86L107.82 14.25C107.84 13.8 107.7 13.36 107.43 13.02C107.18 12.72 106.81 12.55 106.43 12.55C106.01 12.53 105.61 12.69 105.33 12.99C105.04 13.31 104.89 13.73 104.92 14.17L104.92 17.86C104.93 17.93 104.9 18.01 104.84 18.07C104.78 18.13 104.7 18.15 104.63 18.15L103 18.15C102.81 18.15 102.72 18.04 102.72 17.86L102.72 13.15C102.74 12.98 102.68 12.82 102.57 12.7C102.45 12.59 102.29 12.53 102.13 12.56L101.8 12.56C101.58 12.56 101.47 12.48 101.47 12.32L101.47 11.14C101.45 10.98 101.55 10.85 101.7 10.81C102.04 10.68 102.41 10.62 102.78 10.63C103.5 10.56 104.19 10.92 104.56 11.55C105.24 10.9 106.16 10.57 107.1 10.63C108.01 10.58 108.89 10.97 109.47 11.69C110.14 10.96 111.1 10.57 112.09 10.63C112.97 10.58 113.83 10.91 114.46 11.54C115.07 12.18 115.39 13.05 115.35 13.95L115.35 15.88C115.35 16.26 115.52 16.45 115.84 16.45C115.99 16.45 116.15 16.44 116.3 16.4C116.5 16.4 116.61 16.48 116.63 16.64L116.72 17.89Z" fill="#696871" fill-opacity="1.000000" fill-rule="nonzero"/>
	<path d="M12.7449 -0.814697C6.45724 -0.814697 0.978012 3.46838 -0.54007 9.57001L0.659927 9.57001C2.68425 9.54022 4.66705 10.1452 6.32993 11.3C6.42589 11.3695 6.52609 11.433 6.62993 11.4901L6.76993 11.4901C6.87376 11.433 6.97395 11.3695 7.06993 11.3C10.5014 8.99255 14.9884 8.99255 18.4199 11.3C18.5159 11.3695 18.6161 11.433 18.7199 11.4901L18.8599 11.4901C18.9638 11.433 19.064 11.3695 19.1599 11.3C20.8228 10.1452 22.8056 9.54022 24.8299 9.57001L26.0299 9.57001C24.5118 3.46838 19.0326 -0.814697 12.7449 -0.814697ZM22.6699 15.84C23.2859 15.3603 24.0494 15.1093 24.8299 15.13L26.4399 15.13L26.4399 11.92L24.8299 11.92C23.4552 11.9034 22.1118 12.3313 20.9999 13.14C19.7156 14.0869 17.9643 14.0869 16.6799 13.14C14.3449 11.5146 11.2449 11.5146 8.90993 13.14C7.62558 14.0869 5.87427 14.0869 4.58992 13.14C3.46432 12.3209 2.10172 11.8925 0.70993 11.92L-0.950073 11.92L-0.950073 15.13L0.659927 15.13C1.44043 15.1093 2.20392 15.3603 2.81993 15.84C5.15086 17.4666 8.24898 17.4666 10.5799 15.84C11.1967 15.3618 11.9597 15.111 12.7399 15.13C13.5207 15.1077 14.2847 15.3588 14.8999 15.84C17.2349 17.4655 20.3349 17.4655 22.6699 15.84ZM24.8299 20.87C24.0494 20.8493 23.2859 21.1003 22.6699 21.58C20.3349 23.2054 17.2349 23.2054 14.8999 21.58C14.2847 21.0988 13.5207 20.8477 12.7399 20.87C11.9597 20.851 11.1967 21.1017 10.5799 21.58C8.24898 23.2067 5.15086 23.2067 2.81993 21.58C2.20392 21.1003 1.44043 20.8493 0.659927 20.87L-0.950073 20.87L-0.950073 17.66L0.70993 17.66C2.10172 17.6325 3.46432 18.061 4.58992 18.88C5.87427 19.8269 7.62558 19.8269 8.90993 18.88C11.2449 17.2546 14.3449 17.2546 16.6799 18.88C17.9643 19.8269 19.7156 19.8269 20.9999 18.88C22.1118 18.0713 23.4552 17.6434 24.8299 17.66L26.4399 17.66L26.4399 20.87L24.8299 20.87Z" clip-rule="evenodd" fill="#696871" fill-opacity="1.000000" fill-rule="evenodd"/>
</svg>
