<svg width="199.000000" height="40.000000" viewBox="0 0 199 40" fill="none" xmlns="http://www.w3.org/2000/svg" xmlns:xlink="http://www.w3.org/1999/xlink">
	<desc>
			Created with Pixso.
	</desc>
	<defs/>
	<path id="Path" d="M29.02 17.19C27.89 18.32 27.33 19.9 27.48 21.5L27.46 21.47C27.62 23.34 26.94 25.19 25.61 26.52C24.28 27.85 22.43 28.53 20.56 28.37L20.58 28.4C18.31 28.19 16.15 29.42 15.18 31.49C14.22 33.55 14.64 36 16.26 37.61C17.87 39.22 20.32 39.65 22.38 38.68C24.45 37.71 25.68 35.55 25.47 33.28L25.49 33.3C25.34 31.43 26.01 29.58 27.34 28.25C28.67 26.92 30.52 26.24 32.4 26.4L32.37 26.37C34.86 26.6 37.18 25.08 37.97 22.7C38.77 20.32 37.82 17.72 35.68 16.4C33.55 15.09 30.8 15.41 29.03 17.19L29.02 17.19Z" fill="#5454D4" fill-opacity="1.000000" fill-rule="nonzero"/>
	<path id="Path" d="M18.17 24.93L18.15 24.9C19.74 25.06 21.32 24.5 22.46 23.37C23.59 22.24 24.15 20.65 24 19.06L24.02 19.09C23.86 17.21 24.54 15.36 25.87 14.03C27.2 12.7 29.05 12.03 30.93 12.18L30.9 12.16C33.17 12.37 35.33 11.14 36.3 9.07C37.27 7.01 36.84 4.56 35.23 2.95C33.62 1.33 31.17 0.91 29.1 1.88C27.04 2.85 25.81 5.01 26.02 7.28L25.99 7.25C26.15 9.12 25.47 10.97 24.14 12.3C22.81 13.64 20.96 14.31 19.09 14.15L19.12 14.18C17.52 14.02 15.94 14.58 14.81 15.72C13.67 16.85 13.11 18.43 13.27 20.02L13.24 20C13.4 21.87 12.72 23.72 11.39 25.05C10.06 26.38 8.21 27.06 6.34 26.9L6.36 26.93C4.09 26.71 1.93 27.95 0.96 30.01C-0.01 32.07 0.42 34.52 2.03 36.14C3.65 37.75 6.1 38.18 8.16 37.21C10.22 36.24 11.46 34.08 11.24 31.81L11.27 31.83C11.11 29.96 11.79 28.11 13.12 26.78C14.45 25.45 16.3 24.77 18.17 24.93Z" fill="#FF7143" fill-opacity="1.000000" fill-rule="nonzero"/>
	<path id="Path" d="M8.32 21.98C9.45 20.84 10.01 19.26 9.86 17.67L9.88 17.7C9.72 15.82 10.4 13.97 11.73 12.64C13.06 11.31 14.91 10.64 16.79 10.8L16.76 10.77C19.03 10.98 21.19 9.75 22.16 7.69C23.13 5.62 22.7 3.17 21.09 1.56C19.48 -0.05 17.03 -0.48 14.97 0.49C12.9 1.46 11.67 3.62 11.88 5.89L11.86 5.86C12.01 7.74 11.34 9.59 10.01 10.92C8.68 12.25 6.83 12.92 4.95 12.77L4.98 12.79C2.48 12.57 0.16 14.09 -0.63 16.47C-1.42 18.84 -0.47 21.45 1.67 22.77C3.8 24.08 6.55 23.75 8.32 21.98L8.32 21.98Z" fill="#5454D4" fill-opacity="1.000000" fill-rule="nonzero"/>
	<path id="Path" d="M53.87 7.31L58.24 7.31L58.24 28.57L53.87 28.57L53.87 7.31Z" fill="#19191B" fill-opacity="1.000000" fill-rule="nonzero"/>
	<path id="Shape" d="M60.7191 21.2927C60.7066 18.1691 62.5786 15.3459 65.461 14.1418C68.3433 12.9379 71.6672 13.5903 73.8804 15.7947C76.0937 17.999 76.7595 21.3203 75.567 24.2075C74.3745 27.0946 71.559 28.9779 68.4353 28.978C66.3871 29.0013 64.4156 28.2002 62.9643 26.7546C61.5131 25.3092 60.704 23.3409 60.7191 21.2927ZM68.3733 18.0359C70.2111 18.002 71.733 19.4553 71.7838 21.2927C71.8334 22.2036 71.4998 23.0938 70.8638 23.7477C70.2278 24.4016 69.3472 24.7596 68.4353 24.7354C66.5972 24.7355 65.1023 23.2544 65.0852 21.4164C65.0682 19.5782 66.5355 18.0698 68.3733 18.0359Z" clip-rule="evenodd" fill="#19191B" fill-opacity="1.000000" fill-rule="evenodd"/>
	<path id="Shape" d="M93.5588 14.0132L93.5588 27.8367C93.5588 32.7279 89.7441 34.7955 85.8721 34.7955C83.0927 35.0035 80.43 33.6415 78.972 31.2661L82.6985 29.1117C83.3141 30.3555 84.6371 31.0864 86.0176 30.9456C86.8904 31.0664 87.7709 30.7842 88.4107 30.1785C89.0506 29.5726 89.3805 28.7089 89.3073 27.8308L89.3073 26.5C88.2702 27.7689 86.6929 28.4712 85.0559 28.3926C81.0626 28.2666 77.8906 24.993 77.8906 20.9977C77.8906 17.0024 81.0626 13.7288 85.0559 13.6029C86.6929 13.5243 88.2702 14.2266 89.3073 15.4955L89.3073 14.0103L93.5588 14.0132ZM87.2334 17.6355C88.5473 18.228 89.3689 19.5599 89.3088 21C89.336 21.9298 88.9688 22.8278 88.2978 23.472C87.6269 24.1165 86.7148 24.447 85.7868 24.3823C84.3455 24.384 83.0479 23.5093 82.509 22.1725C81.9702 20.8357 82.2982 19.3055 83.3378 18.3073C84.3774 17.309 85.9195 17.043 87.2334 17.6355Z" clip-rule="evenodd" fill="#19191B" fill-opacity="1.000000" fill-rule="evenodd"/>
	<path id="Shape" d="M96.0323 21.2927C96.0198 18.1691 97.8919 15.3459 100.774 14.1418C103.657 12.9379 106.98 13.5903 109.194 15.7947C111.407 17.999 112.073 21.3203 110.88 24.2075C109.688 27.0946 106.872 28.9779 103.749 28.978C101.7 29.0013 99.7288 28.2002 98.2776 26.7546C96.8263 25.3092 96.0172 23.3409 96.0323 21.2927ZM103.686 18.0359C105.524 18.002 107.046 19.4553 107.097 21.2927C107.147 22.2036 106.813 23.0938 106.177 23.7477C105.541 24.4016 104.66 24.7596 103.749 24.7354C101.91 24.7355 100.415 23.2544 100.398 21.4164C100.381 19.5782 101.849 18.0698 103.686 18.0359Z" clip-rule="evenodd" fill="#19191B" fill-opacity="1.000000" fill-rule="evenodd"/>
	<path id="Shape" d="M113.501 10.1117C113.501 9.05188 114.14 8.09631 115.119 7.69067C116.098 7.28503 117.226 7.50928 117.975 8.25867C118.725 9.00818 118.949 10.1354 118.543 11.1146C118.138 12.0939 117.182 12.7323 116.122 12.7323C114.681 12.718 113.516 11.5531 113.501 10.1117ZM118.312 14.0132L113.943 14.0132L113.937 28.572L118.312 28.572L118.312 14.0132Z" clip-rule="evenodd" fill="#19191B" fill-opacity="1.000000" fill-rule="evenodd"/>
	<path id="Shape" d="M137.171 21.2927C137.273 23.236 136.595 25.1398 135.289 26.5824C133.983 28.0249 132.156 28.8871 130.212 28.9779C128.573 29.0674 126.98 28.415 125.875 27.2015L125.875 34.3942L121.507 34.3942L121.507 14.0133L125.875 14.0133L125.875 15.3809C126.981 14.1682 128.573 13.5165 130.212 13.606C132.156 13.6964 133.984 14.5587 135.29 16.0016C136.597 17.4446 137.273 19.349 137.171 21.2927ZM129.281 17.9152C131.183 17.8834 132.755 19.391 132.803 21.2927C132.869 22.2377 132.528 23.166 131.867 23.8442C131.206 24.5225 130.286 24.8862 129.34 24.8441C127.437 24.8444 125.891 23.3108 125.875 21.4086C125.859 19.5065 127.379 17.947 129.281 17.9152Z" clip-rule="evenodd" fill="#19191B" fill-opacity="1.000000" fill-rule="evenodd"/>
	<path id="Path" d="M150.64 24.2C150.64 27.55 147.73 28.97 144.59 28.97C141.99 29.21 139.51 27.84 138.33 25.51L142.11 23.35C142.43 24.44 143.46 25.15 144.58 25.07C145.63 25.07 146.16 24.75 146.16 24.17C146.16 22.57 138.99 23.41 138.99 18.38C138.99 15.2 141.67 13.6 144.7 13.6C147.02 13.53 149.19 14.72 150.38 16.72L146.65 18.72C146.32 17.94 145.55 17.44 144.7 17.44C143.94 17.44 143.48 17.74 143.48 18.26C143.48 19.92 150.64 18.81 150.64 24.2Z" fill="#19191B" fill-opacity="1.000000" fill-rule="nonzero"/>
	<path id="Path" d="M166.6 14.01L166.6 28.57L162.23 28.57L162.23 27.2C161.21 28.42 159.66 29.08 158.07 28.97C155.13 28.97 152.63 26.88 152.63 22.95L152.63 14.01L157 14.01L157 22.31C156.92 23.01 157.16 23.71 157.65 24.22C158.14 24.73 158.82 25 159.53 24.95C161.13 24.95 162.24 24.02 162.24 21.95L162.24 14.01L166.6 14.01Z" fill="#19191B" fill-opacity="1.000000" fill-rule="nonzero"/>
	<path id="Path" d="M191.64 19.63L191.64 28.57L187.27 28.57L187.27 20.01C187.27 18.55 186.58 17.62 185.18 17.62C183.72 17.62 182.91 18.64 182.91 20.36L182.91 28.57L178.54 28.57L178.54 20.01C178.54 18.55 177.84 17.62 176.44 17.62C174.99 17.62 174.17 18.64 174.17 20.36L174.17 28.57L169.81 28.57L169.81 14.01L174.17 14.01L174.17 15.35C175.09 14.14 176.56 13.48 178.07 13.6C179.6 13.53 181.04 14.25 181.89 15.52C182.87 14.2 184.47 13.47 186.11 13.6C189.45 13.6 191.64 15.99 191.64 19.63Z" fill="#19191B" fill-opacity="1.000000" fill-rule="nonzero"/>
	<path id="Oval" d="M195.34 13.92C197.13 13.92 198.58 12.47 198.58 10.68C198.58 8.89 197.13 7.44 195.34 7.44C193.55 7.44 192.1 8.89 192.1 10.68C192.1 12.47 193.55 13.92 195.34 13.92Z" fill="#19191B" fill-opacity="1.000000" fill-rule="nonzero"/>
</svg>
