<svg width="119.000000" height="27.000000" viewBox="0 0 119 27" fill="none" xmlns="http://www.w3.org/2000/svg" xmlns:xlink="http://www.w3.org/1999/xlink">
	<desc>
			Created with Pixso.
	</desc>
	<defs/>
	<path d="M33.87 7.07001L36.87 7.07001L36.87 19.2L33.87 19.2L33.87 7.07001ZM38.06 14.6201C38.06 11.6201 39.9 9.83002 42.74 9.83002C45.58 9.83002 47.42 11.6201 47.42 14.6201C47.42 17.6201 45.62 19.42 42.74 19.42C39.86 19.42 38.06 17.67 38.06 14.6201ZM44.41 14.6201L44.41 14.6301C44.41 16.3 43.77 17.22 42.74 17.22C41.71 17.22 41.08 16.2401 41.08 14.6201C41.08 13.0001 41.72 12.0001 42.74 12.0001C43.76 12.0001 44.41 12.97 44.41 14.6201ZM48.55 19.79L51.43 19.79C51.7115 20.4153 52.3704 20.7814 53.05 20.6901C54.19 20.6901 54.79 20.0701 54.79 19.17L54.79 17.4901L54.73 17.4901C54.241 18.5435 53.1597 19.1931 52 19.1301C49.81 19.1301 48.36 17.46 48.36 14.59C48.36 11.72 49.74 9.91003 52.04 9.91003C53.2372 9.8631 54.3375 10.5648 54.8 11.67L54.8 10.0001L57.8 10.0001L57.8 19.1C57.8 21.29 55.87 22.65 53.02 22.65C50.37 22.65 48.72 21.46 48.55 19.8L48.55 19.79ZM54.8 14.61L54.8 14.6201C54.8 16.1 54.14 16.91 53.07 16.91C52 16.91 51.36 16.08 51.36 14.61C51.36 13.14 52.01 12.23 53.07 12.23C54.13 12.23 54.8 13.15 54.8 14.61ZM58.93 14.61C58.93 11.61 60.77 9.82001 63.61 9.82001C66.45 9.82001 68.3 11.61 68.3 14.61C68.3 17.61 66.5 19.41 63.61 19.41C60.72 19.41 58.93 17.67 58.93 14.6201L58.93 14.61ZM65.28 14.61L65.28 14.6301C65.28 16.3 64.67 17.23 63.65 17.23C62.63 17.23 62 16.26 62 14.6301C62 13.0001 62.59 11.9901 63.61 11.9901C64.63 11.9901 65.28 12.96 65.28 14.61ZM69.44 7.82001C69.4396 7.8067 69.4395 7.7934 69.4395 7.78009C69.4395 7.17627 69.7953 6.6272 70.3496 6.38153C70.9161 6.13049 71.5781 6.24591 72.0262 6.67395C72.3344 6.96826 72.4995 7.37036 72.4995 7.78064C72.4995 7.96704 72.4655 8.15503 72.3952 8.33539C72.1704 8.91284 71.6195 9.29767 71 9.31006C70.594 9.33795 70.1948 9.19513 69.8987 8.91602C69.6058 8.64008 69.4399 8.25555 69.4399 7.85352L69.44 7.84003L69.44 7.82001ZM69.44 10.02L72.44 10.02L72.44 19.2L69.44 19.2L69.44 10.02ZM83.33 14.61C83.33 17.61 82 19.3201 79.72 19.3201C78.5224 19.3969 77.4042 18.718 76.92 17.6201L76.86 17.6201L76.86 22.14L73.86 22.14L73.86 10.0001L76.86 10.0001L76.86 11.64L76.92 11.64C77.3818 10.5237 78.4932 9.81616 79.7 9.87006C82 9.91003 83.37 11.6301 83.37 14.6301L83.33 14.61ZM80.33 14.61L80.33 14.6301C80.33 16.08 79.66 16.9901 78.61 16.9901C77.56 16.9901 76.87 16.0601 76.88 14.61C76.89 13.16 77.56 12.22 78.61 12.22C79.66 12.22 80.33 13.15 80.33 14.61ZM88.48 9.81006C90.97 9.81006 92.48 10.9901 92.55 12.8801L89.82 12.8801C89.82 12.23 89.28 11.8201 88.45 11.8201C87.62 11.8201 87.25 12.14 87.25 12.61C87.25 13.08 87.58 13.23 88.25 13.3701L90.17 13.76C92 14.15 92.78 14.89 92.78 16.28C92.78 18.1801 91.05 19.4 88.5 19.4C85.95 19.4 84.28 18.1801 84.15 16.3101L87.04 16.3101C87.13 16.9901 87.67 17.39 88.55 17.39C89.43 17.39 89.83 17.1 89.83 16.6201C89.83 16.14 89.55 16.04 88.83 15.89L87.1 15.52C85.31 15.15 84.37 14.2 84.37 12.8C84.39 11.0001 86 9.83002 88.48 9.83002L88.48 9.81006ZM102.79 19.1801L99.9 19.1801L99.9 17.47L99.84 17.47C99.5127 18.653 98.4055 19.448 97.18 19.3801C96.2578 19.4324 95.3582 19.0826 94.7137 18.4208C94.1313 17.8228 93.809 17.0232 93.809 16.1954C93.809 16.1072 93.8126 16.0187 93.82 15.9301L93.82 10.0001L96.82 10.0001L96.82 15.2401C96.82 16.33 97.38 16.91 98.31 16.91C98.7512 16.9109 99.1713 16.7213 99.4625 16.3899C99.7093 16.109 99.8431 15.7495 99.8431 15.3801C99.8431 15.3136 99.8388 15.2468 99.83 15.1801L99.83 10.0001L102.83 10.0001L102.79 19.1801ZM104.24 10.0001L107.14 10.0001L107.14 11.77L107.2 11.77C107.527 10.6049 108.6 9.80768 109.81 9.83002C111.051 9.73065 112.161 10.6009 112.36 11.83L112.42 11.83C112.793 10.5978 113.954 9.77478 115.24 9.83002C116.065 9.80231 116.863 10.1263 117.435 10.7214C117.958 11.2654 118.248 11.9891 118.248 12.7383C118.248 12.8087 118.245 12.8793 118.24 12.95L118.24 19.2L115.24 19.2L115.24 13.7501C115.24 12.7501 114.79 12.29 113.95 12.29C113.571 12.2868 113.209 12.4479 112.958 12.7318C112.745 12.9727 112.629 13.282 112.629 13.6C112.629 13.6565 112.633 13.7133 112.64 13.77L112.64 19.2L109.79 19.2L109.79 13.71C109.79 12.79 109.34 12.29 108.52 12.29C108.137 12.2902 107.772 12.4543 107.518 12.741C107.299 12.9875 107.18 13.3043 107.18 13.63C107.18 13.6832 107.184 13.7366 107.19 13.79L107.19 19.2L104.19 19.2L104.24 10.0001Z" clip-rule="evenodd" fill="#696871" fill-opacity="1.000000" fill-rule="evenodd"/>
	<path d="M25.48 7.62C24.9711 6.45636 24.2975 5.37195 23.48 4.40002C20.1816 0.361755 14.8564 -1.42188 9.79126 -0.184875C4.72607 1.05206 0.822388 5.08948 -0.243286 10.1935C-1.30902 15.2974 0.652954 20.5596 4.79999 23.72C5.77496 24.4779 6.85229 25.094 7.99994 25.55C9.60901 26.2094 11.3311 26.5491 13.0699 26.55C20.5433 26.5335 26.5945 20.4734 26.6 13C26.6026 11.1486 26.2213 9.31665 25.48 7.62ZM17.58 3.19C16.1642 2.53113 14.6215 2.18988 13.0599 2.19L13.0699 2.17004C9.367 2.16724 5.92078 4.06177 3.93896 7.18976C1.95709 10.3177 1.71594 14.243 3.29999 17.59C3.75165 17.1155 4.03003 16.5024 4.08997 15.85C4.45367 13.3374 6.42737 11.3637 8.93994 11C10.3576 10.8715 11.4897 9.7644 11.65 8.35004C12.0137 5.83746 13.9874 3.86371 16.4999 3.5C16.8718 3.44336 17.2347 3.33917 17.58 3.19ZM4.78998 20C4.90997 19.89 5.02997 19.79 5.14996 19.67C6.03961 18.8075 6.61066 17.6689 6.76996 16.44C6.83453 15.7493 7.14294 15.1041 7.63995 14.62C8.11823 14.1222 8.76196 13.8163 9.44995 13.76C11.9625 13.3963 13.9363 11.4226 14.3 8.91003C14.3432 8.18756 14.6533 7.50684 15.17 7C15.66 6.51184 16.3099 6.2171 16.9999 6.17004C18.1239 6.01538 19.1721 5.51575 19.9999 4.73999C20.9426 5.52209 21.7413 6.46289 22.36 7.52002C22.322 7.57135 22.2784 7.61835 22.23 7.66003C21.7526 8.16223 21.1097 8.47479 20.42 8.54004C17.9042 8.89746 15.9274 10.8743 15.5699 13.39C15.4247 14.8094 14.2999 15.93 12.8799 16.07C10.3604 16.4309 8.3764 18.4027 7.99994 20.92C7.94617 21.4088 7.77832 21.878 7.50995 22.29C6.48395 21.6808 5.56506 20.9072 4.78998 20ZM10.0599 23.44C11.0354 23.7197 12.0452 23.8611 13.0599 23.86L13.0599 23.81C16.4091 23.797 19.5634 22.2338 21.6021 19.5768C23.6409 16.9197 24.3343 13.4683 23.48 10.23C22.7208 10.7668 21.842 11.1101 20.92 11.23C19.504 11.3745 18.3845 12.494 18.24 13.91C17.8751 16.4257 15.8964 18.4004 13.3799 18.76C11.964 18.9045 10.8444 20.024 10.7 21.44C10.6105 22.1402 10.3936 22.818 10.0599 23.44Z" clip-rule="evenodd" fill="#696871" fill-opacity="1.000000" fill-rule="evenodd"/>
</svg>
