<svg width="127.000000" height="29.000000" viewBox="0 0 127 29" fill="none" xmlns="http://www.w3.org/2000/svg" xmlns:xlink="http://www.w3.org/1999/xlink">
	<desc>
			Created with Pixso.
	</desc>
	<defs/>
	<path d="M35.51 8.25995L38.72 8.25995L38.72 21.2599L35.51 21.2599L35.51 8.25995ZM40 16.37C40 13.15 42 11.22 45 11.22C48 11.22 50 13.15 50 16.37C50 19.59 48.07 21.54 45 21.54C41.93 21.54 40 19.66 40 16.37ZM45.03 13.56C46.13 13.56 46.82 14.6 46.82 16.37L46.84 16.3799C46.84 18.18 46.13 19.17 45.03 19.17C43.93 19.17 43.25 18.18 43.25 16.37C43.25 14.56 43.93 13.56 45.03 13.56ZM51.28 21.93L54.38 21.93C54.67 22.6158 55.3813 23.0247 56.12 22.93C57.35 22.93 57.99 22.27 57.99 21.29L57.99 19.5109C57.4432 20.6457 56.2578 21.3322 55 21.24C52.65 21.24 51.09 19.45 51.09 16.37C51.09 13.29 52.58 11.37 55.09 11.37C56.3169 11.3043 57.4571 11.9758 58 13.0627L58 11.45L61.18 11.45L61.18 21.19C61.18 23.54 59.1 25.0099 56.04 25.0099C53.26 25 51.48 23.73 51.3 21.94L51.28 21.93ZM58 16.37C58 18 57.29 18.85 56.14 18.85C54.99 18.85 54.3 17.93 54.3 16.37C54.3 14.81 55 13.81 56.14 13.81C57.28 13.81 58 14.8 58 16.37ZM62.45 16.37C62.45 13.15 64.45 11.22 67.45 11.22C70.45 11.22 72.45 13.15 72.45 16.37C72.45 19.59 70.51 21.54 67.45 21.54C64.39 21.54 62.47 19.66 62.47 16.37L62.45 16.37ZM67.48 13.56C68.57 13.56 69.27 14.6 69.27 16.37L69.29 16.3799C69.29 18.18 68.58 19.17 67.48 19.17C66.38 19.17 65.7 18.18 65.7 16.37C65.7 14.56 66.39 13.56 67.48 13.56ZM73.75 9.07996C73.749 9.05646 73.7485 9.03296 73.7485 9.00958C73.7485 8.36792 74.1238 7.78217 74.7124 7.51581C75.3224 7.23981 76.0389 7.3623 76.5226 7.82532C76.8522 8.14087 77.0286 8.57141 77.0286 9.01031C77.0286 9.21545 76.9901 9.42242 76.9107 9.6203C76.6615 10.2418 76.0596 10.6494 75.39 10.65C74.9675 10.6607 74.5583 10.5017 74.2539 10.2086C73.9495 9.91547 73.7752 9.51257 73.77 9.08997L73.75 9.07996ZM73.75 11.44L77 11.44L77 21.3L73.8 21.3L73.75 11.44ZM88.69 16.37C88.69 19.58 87.25 21.44 84.8 21.44C83.5153 21.5192 82.3175 20.7886 81.8 19.61L81.74 19.61L81.74 24.47L78.53 24.47L78.53 11.47L81.72 11.47L81.72 13.23L81.78 13.23C82.2799 12.0279 83.4796 11.2681 84.78 11.33C87.3 11.31 88.75 13.16 88.75 16.3799L88.69 16.37ZM83.56 13.8C84.69 13.8 85.42 14.81 85.42 16.37L85.48 16.3799C85.48 18 84.69 18.93 83.56 18.93C82.4377 18.93 81.7099 17.9533 81.7099 16.4018C81.7099 16.3912 81.7099 16.3806 81.71 16.37C81.72 14.8 82.43 13.8 83.56 13.8ZM94.17 11.21C96.86 11.21 98.53 12.48 98.55 14.52L95.62 14.52C95.62 13.81 95.03 13.37 94.15 13.37C93.27 13.37 92.85 13.71 92.85 14.22C92.85 14.73 93.22 14.89 93.96 15.04L96.02 15.46C98.02 15.8799 98.82 16.68 98.82 18.17C98.82 20.17 96.97 21.53 94.22 21.53C91.47 21.53 89.68 20.21 89.55 18.2L92.66 18.2C92.75 18.93 93.33 19.36 94.27 19.36C95.21 19.36 95.65 19.06 95.65 18.53C95.65 18 95.35 17.91 94.58 17.75L92.72 17.36C90.79 16.95 89.78 15.94 89.78 14.43C89.84 12.47 91.52 11.22 94.23 11.22L94.17 11.21ZM109.57 21.29L106.46 21.29L106.46 19.44L106.4 19.44C106.041 20.7111 104.849 21.563 103.53 21.49C102.552 21.5218 101.608 21.1348 100.934 20.4261C100.324 19.786 99.9884 18.9385 99.9884 18.062C99.9884 17.9683 99.9922 17.8741 100 17.78L100 11.45L103.21 11.45L103.21 17.09C103.21 18.25 103.82 18.8799 104.82 18.8799C105.295 18.8764 105.745 18.6673 106.053 18.3068C106.309 18.0077 106.448 17.6287 106.448 17.2401C106.448 17.1602 106.442 17.08 106.43 17L106.43 11.45L109.63 11.45L109.57 21.29ZM111.12 11.44L114.24 11.44L114.24 13.34L114.31 13.34C114.665 12.0882 115.819 11.2335 117.12 11.2599C118.436 11.1456 119.622 12.0508 119.86 13.35L120 13.35C120.411 12.054 121.642 11.1964 123 11.2599C123.888 11.2262 124.748 11.5725 125.365 12.2122C125.927 12.7957 126.239 13.5729 126.239 14.3776C126.239 14.4548 126.236 14.5323 126.23 14.61L126.23 21.3L123 21.3L123 15.43C123 14.43 122.53 13.87 121.62 13.87C121.212 13.8633 120.821 14.0353 120.55 14.3409C120.321 14.5986 120.197 14.9296 120.197 15.2697C120.197 15.3329 120.201 15.3965 120.21 15.46L120.21 21.3L117.15 21.3L117.15 15.4C117.15 14.4 116.66 13.87 115.78 13.87C115.367 13.8667 114.974 14.0418 114.699 14.3503C114.466 14.6135 114.339 14.952 114.339 15.2999C114.339 15.3597 114.342 15.4199 114.35 15.48L114.35 21.3L111.14 21.3L111.12 11.44Z" clip-rule="evenodd" fill="#696871" fill-opacity="1.000000" fill-rule="evenodd"/>
	<path d="M22.8641 -0.0974731C26.6602 1.38025 29.1602 5.03638 29.16 9.10999C29.1581 11.9163 27.9617 14.5891 25.87 16.46L25.87 28.77L-0.47998 28.77L-0.47998 2.42999L12 2.42999C14.754 -0.571594 19.068 -1.57526 22.8641 -0.0974731ZM24.09 9.10999C24.0941 11.0604 22.9223 12.821 21.1215 13.5702C19.3207 14.3194 17.2459 13.9095 15.8653 12.5318C14.4847 11.1541 14.0705 9.08014 14.816 7.27777C15.5614 5.47546 17.3196 4.29999 19.27 4.29999C21.9281 4.29999 24.0845 6.4519 24.09 9.10999ZM4.59003 23.7L20.8 23.7L20.8 18.87C20.2943 18.9538 19.7827 18.9973 19.27 19C13.8102 18.9945 9.38553 14.5698 9.38 9.10999C9.3844 8.57007 9.4346 8.03143 9.53003 7.5L4.59003 7.5L4.59003 23.7Z" clip-rule="evenodd" fill="#696871" fill-opacity="1.000000" fill-rule="evenodd"/>
</svg>
